<?xml version="1.0" encoding="UTF-8" standalone="no"?><!DOCTYPE svg PUBLIC "-//W3C//DTD SVG 1.1//EN" "http://www.w3.org/Graphics/SVG/1.1/DTD/svg11.dtd"><svg width="100%" height="100%" viewBox="0 0 148 172" version="1.1" xmlns="http://www.w3.org/2000/svg" xmlns:xlink="http://www.w3.org/1999/xlink" xml:space="preserve" style="fill-rule:evenodd;clip-rule:evenodd;stroke-linejoin:round;stroke-miterlimit:1.41421;"><path id="logo" d="M147.502,107.555c-15.841,-17.137 -22.417,-40.279 -19.728,-69.426c6.034,-3.984 12.427,-6.683 19.177,-8.094c-5.667,-5.764 -12.669,-10.396 -21.005,-13.897c4.429,-3.23 9.98,-5.474 16.653,-6.731c-8.297,-1.818 -21.101,-3.24 -38.412,-4.265c-8.259,-0.503 -17.543,-0.909 -27.852,-1.218l0,-3.598c-26.71,7.35 -47.782,15.309 -63.217,23.877c-1.141,3.946 -1.624,7.282 -1.45,10.009l-6.615,3.801c-2.805,8.433 -4.323,15.28 -4.555,20.54c9.767,21.643 16.566,40.579 20.395,56.806c1.761,14.603 1.741,29.621 -0.058,45.056l58.402,10.879c-0.716,-3.385 -1.296,-6.537 -1.741,-9.458c-1.489,-9.651 -1.46,-16.788 0.087,-21.411c14.255,1.915 28.519,2.882 42.793,2.902c3.945,-9.865 6.092,-18.655 6.44,-26.372c7.853,-1.412 14.748,-4.546 20.686,-9.4m-41.661,-74.996c7.001,4.448 11.372,11.778 13.113,21.991c0.967,5.744 0.754,10.802 -0.638,15.173c-1.393,4.468 -4.845,8.539 -10.357,12.214c-5.493,3.675 -12.156,5.919 -19.99,6.731c-7.872,0.812 -16.624,-0.155 -26.256,-2.901c-3.23,4.7 -8.229,7.417 -14.999,8.152c-6.75,0.716 -13.113,-1.354 -19.09,-6.209c-5.976,-4.893 -9.206,-11.43 -9.69,-19.612c-0.503,-8.258 0.851,-15.086 4.062,-20.482c3.23,-5.474 8.046,-10.541 14.448,-15.202c6.634,-4.855 14.496,-7.911 23.587,-9.168c8.413,-1.18 17.049,-0.726 25.907,1.363c7.447,1.586 14.081,4.236 19.903,7.95m-65.713,34.756l1.248,7.456l7.427,-1.247l-1.247,-7.457l-7.428,1.248m24.777,-34.727l2.495,14.883l-22.34,3.742l1.248,7.427l14.883,-2.495l2.495,14.884l-14.883,2.495l1.248,7.427l37.193,-6.238l-1.248,-7.427l-14.854,2.495l-1.247,-7.456l22.31,-3.743l-1.247,-7.427l-14.884,2.495l-1.247,-7.427l7.427,-1.247l-2.495,-14.883l-14.854,2.495m31.043,48.305l-1.248,-7.427l-7.456,1.247l1.248,7.427l7.456,-1.247Z" style="fill:#fff;fill-rule:nonzero;"/></svg>