<?xml version="1.0" encoding="UTF-8" standalone="no"?><!DOCTYPE svg PUBLIC "-//W3C//DTD SVG 1.1//EN" "http://www.w3.org/Graphics/SVG/1.1/DTD/svg11.dtd"><svg width="100%" height="100%" viewBox="0 0 162 51" version="1.1" xmlns="http://www.w3.org/2000/svg" xmlns:xlink="http://www.w3.org/1999/xlink" xml:space="preserve" style="fill-rule:evenodd;clip-rule:evenodd;stroke-linejoin:round;stroke-miterlimit:1.41421;"><path id="title" d="M17.847,40.811l-7.313,0l-0.028,-19.387l-2.44,0l0.029,19.387l-7.316,0l0,-37.797l7.316,-1.367l-0.029,13.854l9.756,0l0.025,25.31Zm20.459,-7.547l0.024,7.547l-17.068,0l-0.027,-25.31l17.071,0l0,15.789l-9.755,0l0.026,3.355l2.437,0l-0.024,-1.381l7.316,0Zm-7.316,-7.894l0,-3.986l-2.439,0.04l0,3.946l2.439,0Zm10.752,15.441l-0.021,-15.441l9.755,0l0,-3.946l-2.439,0l0,1.972l-7.316,0l0,-7.895l17.071,0l0.019,25.31l-17.069,0Zm9.734,-9.521l-2.439,0l0.021,3.398l2.439,-0.043l-0.021,-3.355Zm10.75,9.521l-0.02,-25.31l9.755,0l0.016,-15.212l7.198,0.079l0.118,40.443l-17.067,0Zm9.735,-19.387l-2.439,0l0.016,13.221l2.439,0l-0.016,-13.221Zm7.547,29.055l0,-7.165l3.198,-1.1l-0.014,-26.713l7.315,0l0.015,31.877l-10.514,3.101Zm3.184,-42.872l7.315,0l0,5.923l-7.315,0l0,-5.923Zm10.741,33.204l-0.011,-25.31l7.315,0l0.012,19.144l2.439,0l-0.012,-19.144l7.316,0l0.01,25.31l-17.069,0Zm39.991,0l-0.007,-19.387l-2.437,0l0.004,19.387l-7.314,0l-0.008,-19.387l-2.437,0l0.008,19.387l-7.316,0l-0.01,-25.31l26.828,0l0.002,25.31l-7.313,0Zm18.042,0l0,6.13l-7.314,2.638l-0.004,-34.078l17.073,0l0,22.675l-9.755,2.635Zm2.437,-19.387l-2.437,0l0,12.588l2.437,-0.602l0,-11.986Zm-71.197,-21.056l-2.056,1.279l2.056,-1.279Z" style="fill:#fff;"/></svg>